<?xml version="1.0" encoding="UTF-8"?>
<svg viewBox="0 0 32 32" xmlns="http://www.w3.org/2000/svg">
  <defs>
    <linearGradient id="greenGradient" x1="0%" y1="0%" x2="100%" y2="100%">
      <stop offset="0%" style="stop-color:#10B981;stop-opacity:1" />
      <stop offset="100%" style="stop-color:#059669;stop-opacity:1" />
    </linearGradient>
  </defs>
  
  <!-- Background circle -->
  <circle cx="16" cy="16" r="15" fill="url(#greenGradient)" stroke="#047857" stroke-width="1"/>
  
  <!-- Ship Wheel Icon -->
  <!-- Outer rim -->
  <circle cx="16" cy="16" r="10" fill="none" stroke="#FFFFFF" stroke-width="2"/>
  
  <!-- Inner hub -->
  <circle cx="16" cy="16" r="3" fill="#FFFFFF" stroke="#047857" stroke-width="1"/>
  
  <!-- Spokes (8 spokes like a ship wheel) -->
  <!-- Vertical and horizontal spokes -->
  <line x1="16" y1="6" x2="16" y2="13" stroke="#FFFFFF" stroke-width="2" stroke-linecap="round"/>
  <line x1="16" y1="19" x2="16" y2="26" stroke="#FFFFFF" stroke-width="2" stroke-linecap="round"/>
  <line x1="6" y1="16" x2="13" y2="16" stroke="#FFFFFF" stroke-width="2" stroke-linecap="round"/>
  <line x1="19" y1="16" x2="26" y2="16" stroke="#FFFFFF" stroke-width="2" stroke-linecap="round"/>
  
  <!-- Diagonal spokes -->
  <line x1="8.88" y1="8.88" x2="13.76" y2="13.76" stroke="#FFFFFF" stroke-width="2" stroke-linecap="round"/>
  <line x1="18.24" y1="18.24" x2="23.12" y2="23.12" stroke="#FFFFFF" stroke-width="2" stroke-linecap="round"/>
  <line x1="23.12" y1="8.88" x2="18.24" y2="13.76" stroke="#FFFFFF" stroke-width="2" stroke-linecap="round"/>
  <line x1="13.76" y1="18.24" x2="8.88" y2="23.12" stroke="#FFFFFF" stroke-width="2" stroke-linecap="round"/>
  
  <!-- Handle grips on the outer rim -->
  <circle cx="16" cy="6" r="1.5" fill="#FFFFFF"/>
  <circle cx="16" cy="26" r="1.5" fill="#FFFFFF"/>
  <circle cx="6" cy="16" r="1.5" fill="#FFFFFF"/>
  <circle cx="26" cy="16" r="1.5" fill="#FFFFFF"/>
  <circle cx="8.88" cy="8.88" r="1.5" fill="#FFFFFF"/>
  <circle cx="23.12" cy="23.12" r="1.5" fill="#FFFFFF"/>
  <circle cx="23.12" cy="8.88" r="1.5" fill="#FFFFFF"/>
  <circle cx="8.88" cy="23.12" r="1.5" fill="#FFFFFF"/>
</svg>